<svg xmlns="http://www.w3.org/2000/svg" viewBox="0 0 100 100">
  <rect width="100" height="100" rx="22" fill="#0d1218"/>
  <rect x="31" y="17" width="38" height="14" rx="2" fill="#f4b53f"/>
  <g stroke="#0d1218" stroke-width="1.5" opacity=".45"><path d="M33 21 h34 M33 26 h34"/></g>
  <path d="M34 31 Q34 37 30 43 L30 76 Q30 84 38 84 L62 84 Q70 84 70 76 L70 43 Q66 37 66 31 Z" fill="#0e151b" stroke="#38cba7" stroke-width="5"/>
  <g transform="translate(50,59) scale(0.40) translate(-50,-48)">
    <g stroke="#38cba7" stroke-width="4" stroke-linecap="round"><path d="M30 48 L14 40"/><path d="M30 60 L12 60"/><path d="M30 72 L16 82"/><path d="M70 48 L86 40"/><path d="M70 60 L88 60"/><path d="M70 72 L84 82"/></g>
    <path d="M44 20 C40 12 37 10 32 8 M56 20 C60 12 63 10 68 8" stroke="#f4b53f" stroke-width="2.6" fill="none" stroke-linecap="round"/>
    <ellipse cx="50" cy="58" rx="20" ry="26" fill="#38cba7"/>
    <ellipse cx="50" cy="36" rx="12" ry="10" fill="#f4b53f"/>
    <circle cx="50" cy="24" r="7" fill="#f4b53f"/>
    <line x1="50" y1="36" x2="50" y2="82" stroke="#0e151b" stroke-width="2.6"/>
  </g>
</svg>
